<svg width="86" height="86" viewBox="0 0 86 86" fill="none" xmlns="http://www.w3.org/2000/svg">
<path d="M82.2609 7.47827H43.058C43.0393 7.47827 43.0187 7.47827 43 7.47827H3.73913C3.73913 7.47827 3.73726 7.47827 3.73539 7.47827C1.67513 7.48201 0 9.15714 0 11.2174V74.7826C0 76.8429 1.677 78.5217 3.73913 78.5217H82.2627C84.323 78.5217 86 76.8429 86 74.7826V54.2193C86 54.2193 86 54.2193 86 54.2174V31.7826C86 31.7807 86 31.7807 86 31.7789V11.2174C86 9.15527 84.323 7.47827 82.2609 7.47827ZM3.73913 33.6522H14.9565V52.3478H3.73913V33.6522ZM41.1304 52.159C36.8697 51.2897 33.6522 47.515 33.6522 43C33.6522 38.485 36.8697 34.7104 41.1304 33.841V52.159ZM41.1304 30.0626C34.7982 30.975 29.913 36.421 29.913 43C29.913 49.579 34.7982 55.025 41.1304 55.9374V74.7826H3.73913V56.087H16.8261C17.8581 56.087 18.6957 55.2494 18.6957 54.2174V31.7826C18.6957 30.7506 17.8581 29.913 16.8261 29.913H3.73913V11.2174H41.1304V30.0626ZM44.8696 33.841C49.1303 34.7104 52.3478 38.485 52.3478 43C52.3478 47.515 49.1303 51.2897 44.8696 52.159V33.841ZM82.2609 52.3478H71.0435V33.6522H82.2609V52.3478ZM82.2609 29.913H69.1739C68.1419 29.913 67.3044 30.7506 67.3044 31.7826V54.2174C67.3044 55.2494 68.1419 56.087 69.1739 56.087H82.2609V74.7826H44.8696V55.9374C51.2018 55.025 56.087 49.579 56.087 43C56.087 36.421 51.2018 30.975 44.8696 30.0626V11.2174H82.2609V29.913Z" fill="#111010"/>
</svg>
