<svg width="75" height="75" viewBox="0 0 75 75" fill="none" xmlns="http://www.w3.org/2000/svg">
<path d="M73.2129 72.6027L52.1725 50.7212C57.5392 45.339 60.864 37.9191 60.864 29.7361C60.864 13.3387 47.5252 0 31.1279 0C14.7306 0 1.39185 13.3387 1.39185 29.7361C1.39185 46.1334 14.7306 59.4721 31.1279 59.4721C38.3254 59.4721 44.9311 56.8992 50.0797 52.63L71.1711 74.5653C71.4486 74.8556 71.8196 75 72.192 75C72.546 75 72.8986 74.8683 73.1733 74.6049C73.7368 74.0626 73.7538 73.1663 73.2129 72.6027ZM31.1279 56.6401C16.2924 56.6401 4.22385 44.5715 4.22385 29.7361C4.22385 14.9006 16.2924 2.83201 31.1279 2.83201C45.9634 2.83201 58.032 14.9006 58.032 29.7361C58.032 44.5715 45.962 56.6401 31.1279 56.6401Z" fill="black"/>
</svg>
