<svg width="75" height="75" viewBox="0 0 75 75" fill="none" xmlns="http://www.w3.org/2000/svg">
<g clip-path="url(#clip0)">
<path d="M71.4244 43.9298H70.302V33.8201C70.302 32.2196 69.5054 30.8025 68.2889 29.9415V28.565C68.2889 26.5683 66.6645 24.9439 64.6678 24.9439H63.8297L67.0361 20.2388C68.1109 18.6618 67.7022 16.5042 66.1251 15.4293L44.3677 0.60216C43.6038 0.081408 42.683 -0.110779 41.7742 0.0616326C40.8658 0.233752 40.0788 0.74923 39.5581 1.51329L20.7787 29.0704H15.5529L16.8137 16.3072C16.8279 16.1633 16.9213 16.0387 17.0517 15.9896C18.6761 15.3772 20.0838 14.2334 21.0154 12.7692C21.0888 12.6539 21.2272 12.588 21.3705 12.6025L29.567 13.4122C30.1547 13.4692 30.6775 13.0412 30.7355 12.4538C30.7936 11.8664 30.3645 11.3433 29.7771 11.2853L21.5806 10.4755C20.6291 10.3823 19.7218 10.8208 19.2121 11.6217C18.5271 12.6984 17.492 13.5392 16.2978 13.9895C15.3988 14.3285 14.7815 15.1359 14.6866 16.097L13.4051 29.0702H12.0424L14.0363 8.88409C14.1081 8.15753 14.7566 7.62374 15.484 7.69654L32.0476 9.33278C32.635 9.38946 33.1581 8.96173 33.2161 8.37433C33.2741 7.78693 32.8451 7.26383 32.2577 7.20582L15.6941 5.56959C13.7951 5.38224 12.0969 6.77457 11.9092 8.67389L10.302 24.9439H7.56494C5.56836 24.9439 3.94385 26.5683 3.94385 28.565V29.504C2.3104 30.256 1.1731 31.9072 1.1731 33.8201V70.2501C1.1731 72.8692 3.30386 75 5.92314 75H65.5521C68.1712 75 70.302 72.8692 70.302 70.2501V60.1406H71.4244C72.7492 60.1406 73.8269 59.0629 73.8269 57.7382V46.3322C73.827 45.0074 72.7492 43.9298 71.4244 43.9298ZM64.6678 27.0814C65.486 27.0813 66.1515 27.7469 66.1515 28.5651V29.1096C65.9549 29.0847 65.7553 29.0705 65.5521 29.0705H61.0177L62.3731 27.0814H64.6678ZM41.3243 2.71681C41.5235 2.42457 41.8246 2.2274 42.172 2.16149C42.2551 2.14581 42.3384 2.1379 42.4212 2.1379C42.6844 2.1379 42.9416 2.21671 43.164 2.36818L64.9215 17.1953C65.5247 17.6065 65.6811 18.4318 65.2701 19.035L58.4313 29.0701H56.7901L60.143 24.1501C60.6868 23.3522 60.7316 22.3368 60.2596 21.4999C59.6324 20.3881 59.3781 19.079 59.5436 17.8135C59.6666 16.872 59.2524 15.953 58.4625 15.4148L47.1835 7.72848C46.3935 7.19015 45.3866 7.14078 44.5555 7.59972C43.4385 8.21642 42.127 8.45856 40.8629 8.2816C39.9254 8.15006 38.9746 8.5734 38.4389 9.35929L25.0064 29.0702H23.3652L41.3243 2.71681ZM41.795 20.8649C37.141 20.8649 33.3207 24.4938 33.0094 29.0702H27.5926L40.2047 10.563C40.2049 10.563 40.2049 10.563 40.2049 10.563C40.2765 10.4576 40.3953 10.3949 40.5173 10.3949C40.5336 10.3949 40.5499 10.3961 40.5661 10.3983C42.2855 10.6388 44.069 10.3098 45.5883 9.47091C45.7079 9.4047 45.8614 9.41422 45.9797 9.49479L57.2589 17.1813C57.3769 17.2618 57.4418 17.4013 57.4243 17.5366C57.1991 19.2577 57.5451 21.038 58.3981 22.5501C58.4665 22.6715 58.4581 22.8271 58.377 22.9464L54.204 29.0701H50.581C50.2694 24.4938 46.4492 20.8649 41.795 20.8649ZM48.4377 29.0704H35.1523C35.4585 25.6735 38.3199 23.0024 41.795 23.0024C45.2702 23.0023 48.1317 25.6735 48.4377 29.0704ZM6.0812 28.565C6.0812 27.7467 6.74668 27.0811 7.56494 27.0811H10.0909L9.89448 29.0702H6.0812V28.565ZM3.31045 33.8201C3.31045 32.3796 4.48247 31.2076 5.92314 31.2076H65.5521C66.9928 31.2076 68.1646 32.3796 68.1646 33.8201V36.7856H3.31045V33.8201ZM68.1646 70.2501C68.1646 71.6906 66.9928 72.8626 65.5521 72.8626H5.92314C4.48247 72.8626 3.31045 71.6906 3.31045 70.2501V67.2846H9.07344C9.66377 67.2846 10.142 66.8062 10.142 66.216C10.142 65.6258 9.66362 65.1474 9.07344 65.1474H3.31045V38.9229H68.1646V43.9298H58.0036H58.0035C54.8019 43.9298 52.0287 45.796 50.7125 48.4973C50.7081 48.5064 50.7031 48.5152 50.6986 48.5242C50.6874 48.5472 50.6778 48.5711 50.6669 48.5942C50.5102 48.9272 50.374 49.2719 50.2631 49.6275C50.2628 49.6286 50.2625 49.6295 50.2622 49.6305C50.0256 50.3906 49.898 51.1982 49.898 52.0352C49.898 56.5046 53.5341 60.1406 58.0033 60.1406H58.0035H68.1645V65.1474H15.9163C15.326 65.1474 14.8477 65.6258 14.8477 66.216C14.8477 66.8062 15.3261 67.2846 15.9163 67.2846H68.1646V70.2501ZM71.6896 57.7381C71.6896 57.8843 71.5707 58.0032 71.4244 58.0032H58.0038C55.7413 58.0032 53.7687 56.7378 52.757 54.8776C52.711 54.793 52.667 54.7072 52.625 54.6203C52.5411 54.4464 52.4653 54.2679 52.3984 54.0851C52.1637 53.4455 52.0357 52.755 52.0357 52.0352C52.0357 51.3153 52.1639 50.6248 52.3984 49.9853C52.4655 49.8026 52.5412 49.624 52.625 49.45C52.667 49.3631 52.711 49.2773 52.757 49.1928C53.7687 47.3326 55.7413 46.0671 58.0038 46.0671H71.4244C71.5705 46.0671 71.6896 46.1861 71.6896 46.3322V57.7381Z" fill="black"/>
<path d="M58.2542 47.6993C55.8632 47.6993 53.9182 49.6445 53.9182 52.0353C53.9182 54.426 55.8632 56.3711 58.2542 56.3711C60.6451 56.3711 62.5901 54.426 62.5901 52.0353C62.5901 49.6445 60.6451 47.6993 58.2542 47.6993ZM58.2542 54.2337C57.0419 54.2337 56.0556 53.2474 56.0556 52.0353C56.0556 50.8231 57.0419 49.8367 58.2542 49.8367C59.4665 49.8367 60.4527 50.823 60.4527 52.0353C60.4527 53.2476 59.4665 54.2337 58.2542 54.2337Z" fill="black"/>
</g>
<defs>
<clipPath id="clip0">
<rect width="75" height="75" fill="white"/>
</clipPath>
</defs>
</svg>
