<svg width="29" height="29" viewBox="0 0 29 29" fill="none" xmlns="http://www.w3.org/2000/svg">
<path d="M16.8381 28.8113C16.7173 28.831 16.5961 28.8491 16.4744 28.8657C16.5961 28.8491 16.7173 28.831 16.8381 28.8113Z" fill="#F9F9F9"/>
<path d="M17.1281 28.7617C17.0703 28.7723 17.0126 28.7821 16.9548 28.792C17.0126 28.7821 17.0703 28.7723 17.1281 28.7617Z" fill="#F9F9F9"/>
<path d="M16.1502 28.906C16.0089 28.9219 15.8666 28.9361 15.7239 28.948C15.8666 28.9361 16.0089 28.9219 16.1502 28.906Z" fill="#F9F9F9"/>
<path d="M16.4288 28.8718C16.3609 28.8809 16.2925 28.8893 16.2244 28.8973C16.2925 28.8893 16.3609 28.8809 16.4288 28.8718Z" fill="#F9F9F9"/>
<path d="M17.5227 28.6833C17.4718 28.6942 17.4207 28.705 17.3696 28.7154C17.4207 28.705 17.4718 28.6942 17.5227 28.6833Z" fill="#F9F9F9"/>
<path d="M18.5024 28.4399C18.4612 28.4517 18.4201 28.4627 18.3789 28.4742C18.4201 28.4627 18.4612 28.4517 18.5024 28.4399Z" fill="#F9F9F9"/>
<path d="M18.2063 28.521C18.1616 28.5327 18.1167 28.5447 18.0718 28.556C18.1167 28.5447 18.1616 28.5329 18.2063 28.521Z" fill="#F9F9F9"/>
<path d="M17.8185 28.6179C17.7711 28.629 17.7233 28.6394 17.6755 28.65C17.7233 28.6394 17.7711 28.629 17.8185 28.6179Z" fill="#F9F9F9"/>
<path d="M15.7195 28.9485C15.6431 28.9549 15.5668 28.9607 15.4902 28.9657C15.5668 28.9607 15.6431 28.9549 15.7195 28.9485Z" fill="#F9F9F9"/>
<path d="M29 14.5C29 6.4931 22.5069 0 14.5 0C6.4931 0 0 6.4931 0 14.5C0 22.5069 6.4931 29 14.5 29C14.5852 29 14.6699 28.9982 14.7549 28.9967V17.709H11.6396V14.0785H14.7549V11.4069C14.7549 8.30847 16.6464 6.62209 19.4103 6.62209C20.7338 6.62209 21.8715 6.72076 22.2031 6.76479V10.003H20.2973C18.7936 10.003 18.5025 10.7177 18.5025 11.7662V14.0785H22.0978L21.6292 17.709H18.5025V28.4398C24.5632 26.7023 29 21.1185 29 14.5Z" fill="#F9F9F9"/>
<path d="M15.4581 28.9677C15.3072 28.9774 15.1557 28.9851 15.0037 28.9902C15.1557 28.9851 15.3072 28.9774 15.4581 28.9677Z" fill="#F9F9F9"/>
<path d="M14.9958 28.9907C14.9158 28.9934 14.8354 28.9954 14.7551 28.9967C14.8354 28.9954 14.9158 28.9934 14.9958 28.9907Z" fill="#F9F9F9"/>
</svg>
