<svg width="29" height="29" viewBox="0 0 29 29" fill="none" xmlns="http://www.w3.org/2000/svg">
<path d="M14.5 29C22.5081 29 29 22.5081 29 14.5C29 6.49187 22.5081 0 14.5 0C6.49187 0 0 6.49187 0 14.5C0 22.5081 6.49187 29 14.5 29Z" fill="#F9F9F9"/>
<path fill-rule="evenodd" clip-rule="evenodd" d="M13.9523 20.8596H15.0904C15.0904 20.8596 15.4342 20.8218 15.6097 20.6326C15.7712 20.4589 15.766 20.1327 15.766 20.1327C15.766 20.1327 15.7438 18.6056 16.4525 18.3808C17.1512 18.1593 18.0484 19.8567 18.9993 20.5093C19.7184 21.0033 20.2648 20.895 20.2648 20.895L22.8074 20.8596C22.8074 20.8596 24.1376 20.7776 23.5069 19.7318C23.4552 19.6463 23.1396 18.9582 21.6164 17.5443C20.0221 16.0646 20.2356 16.3039 22.1561 13.7442C23.3257 12.1853 23.7933 11.2336 23.6472 10.826C23.5079 10.4378 22.6477 10.5404 22.6477 10.5404L19.7848 10.5582C19.7848 10.5582 19.5726 10.5293 19.4152 10.6234C19.2614 10.7157 19.1624 10.9307 19.1624 10.9307C19.1624 10.9307 18.7093 12.137 18.105 13.1629C16.8302 15.3276 16.3205 15.4419 16.1121 15.3075C15.6275 14.9942 15.7485 14.049 15.7485 13.3774C15.7485 11.2796 16.0666 10.405 15.1289 10.1785C14.8177 10.1033 14.5887 10.0537 13.7928 10.0457C12.7713 10.0351 11.9067 10.0488 11.4172 10.2886C11.0915 10.4481 10.8403 10.8035 10.9933 10.824C11.1825 10.8493 11.611 10.9395 11.8382 11.2489C12.1316 11.648 12.1213 12.5444 12.1213 12.5444C12.1213 12.5444 12.2898 15.0139 11.7276 15.3207C11.3417 15.5311 10.8123 15.1015 9.67582 13.1376C9.09347 12.1316 8.6538 11.0196 8.6538 11.0196C8.6538 11.0196 8.56902 10.8118 8.41782 10.7007C8.2343 10.566 7.97789 10.5231 7.97789 10.5231L5.25743 10.5409C5.25743 10.5409 4.84903 10.5523 4.69912 10.7299C4.56574 10.8878 4.68852 11.2145 4.68852 11.2145C4.68852 11.2145 6.81836 16.1974 9.22995 18.7085C11.4412 21.0108 13.9523 20.8596 13.9523 20.8596Z" fill="#2AA936"/>
</svg>
