<svg width="86" height="86" viewBox="0 0 86 86" fill="none" xmlns="http://www.w3.org/2000/svg">
<g clip-path="url(#clip0)">
<path d="M46.2473 27.9858C41.6209 26.2254 36.509 26.2254 31.8826 27.9858C28.4727 29.2738 25.4703 31.4515 23.1863 34.2925C20.2771 37.892 18.6964 42.3845 18.7115 47.0135C18.7115 47.2366 18.726 47.4577 18.7417 47.6802L18.7575 47.9662C19.1505 56.7695 25.1842 64.311 33.687 66.6259C37.2025 67.6127 40.9221 67.6127 44.437 66.6259C52.943 64.3123 58.9807 56.7688 59.3724 47.9623L59.3895 47.6756C59.4052 47.4531 59.4184 47.2327 59.4184 47.0089C59.4328 42.3813 57.8515 37.8901 54.9423 34.2912C52.6596 31.4502 49.6572 29.2725 46.2473 27.9858ZM52.216 35.5037L50.1361 41.9062L46.1318 43.2093L40.4983 39.1203V34.9073L45.9454 30.96C48.3488 31.9869 50.4917 33.5393 52.216 35.5037ZM44.189 45.3463L42.2298 51.3781H35.8929L33.9337 45.3463L39.0653 41.6195L44.189 45.3463ZM42.5382 29.8833L39.0653 32.4048L35.5937 29.8833C37.8842 29.4076 40.2476 29.4076 42.5382 29.8833ZM32.1851 30.96L37.6316 34.9132V39.1183L31.9889 43.2178L27.9911 41.9194L25.9145 35.5037C27.6395 33.5399 29.7817 31.9875 32.1851 30.96ZM23.8431 38.413L25.1731 42.504L21.6877 45.0366C21.9469 42.7054 22.6805 40.4509 23.8431 38.413ZM24.0511 55.969C22.7152 53.7185 21.9023 51.197 21.6733 48.5902L27.1067 44.6423L31.1117 45.9427L33.2618 52.5617L30.7889 55.969H24.0511ZM26.1894 58.8356H30.4798L31.8026 62.9076C29.6774 61.9385 27.7687 60.5521 26.1894 58.8311V58.8356ZM42.9351 64.0499C40.3861 64.6476 37.734 64.6476 35.1849 64.0499L33.1057 57.65L35.578 54.2447H42.5408L45.015 57.65L42.9351 64.0499ZM46.3221 62.903L47.6448 58.8311H51.9365C50.3579 60.5494 48.4505 61.9339 46.328 62.903H46.3221ZM54.0749 55.9644H47.3384L44.8641 52.5578L47.0143 45.9355L51.0147 44.6357L56.4573 48.5902C56.2283 51.1957 55.416 53.7159 54.0808 55.9644H54.0749ZM52.9529 42.5L54.2874 38.4137C55.4481 40.4509 56.1797 42.7047 56.4369 45.0353L52.9529 42.5Z" fill="#111010"/>
<path d="M64.5786 58.7667H67.4452V61.6333H64.5786V58.7667Z" fill="#111010"/>
<path d="M64.5786 53.0335H67.4452V55.9001H64.5786V53.0335Z" fill="#111010"/>
<path d="M64.5786 47.3003H67.4452V50.1669H64.5786V47.3003Z" fill="#111010"/>
<path d="M55.978 70.2333H58.8447V73.0999H55.978V70.2333Z" fill="#111010"/>
<path d="M50.2451 70.2333H53.1117V73.0999H50.2451V70.2333Z" fill="#111010"/>
<path d="M44.5117 70.2333H47.3783V73.0999H44.5117V70.2333Z" fill="#111010"/>
<path d="M69.892 73.5198L67.8652 75.5466L72.1648 79.8469C72.4332 80.1165 72.798 80.2681 73.1786 80.2668H73.2586C73.6654 80.2445 74.0433 80.0496 74.2979 79.732L80.0312 72.5652L77.7924 70.7739L73.0624 76.6909L69.892 73.5198Z" fill="#111010"/>
<path d="M73.1786 86C79.5076 86.0039 84.6412 80.8763 84.6444 74.5473C84.6477 69.3173 81.1092 64.7487 76.0452 63.4436V7.16689C76.0452 6.37494 75.4035 5.73325 74.6116 5.73325H70.312V4.30026C70.312 1.92508 68.3862 0 66.0117 0C63.6365 0 61.7115 1.92508 61.7115 4.30026V5.73325H58.8448V4.30026C58.8448 1.92508 56.9198 0 54.5452 0C52.17 0 50.245 1.92508 50.245 4.30026V5.73325H27.312V4.30026C27.312 1.92508 25.3869 0 23.0117 0C20.6365 0 18.7115 1.92508 18.7115 4.30026V5.73325H15.8448V4.30026C15.8448 1.92508 13.9198 0 11.5452 0C9.17004 0 7.24496 1.92508 7.24496 4.30026V5.73325H2.94536C2.15341 5.73325 1.51172 6.37494 1.51172 7.16689V77.4001C1.51172 78.1914 2.15341 78.8331 2.94536 78.8331H62.5559C64.3097 83.1603 68.5096 85.9934 73.1786 86ZM81.7785 74.5335C81.7785 79.2832 77.9283 83.1334 73.1786 83.1334C68.4289 83.1334 64.5787 79.2832 64.5787 74.5335C64.5787 69.7838 68.4289 65.9336 73.1786 65.9336C77.9263 65.9382 81.7739 69.7858 81.7785 74.5335ZM64.5787 4.30026C64.5787 3.50832 65.2204 2.86662 66.0117 2.86662C66.803 2.86662 67.4454 3.50832 67.4454 4.30026V10.0335C67.4454 10.8248 66.8037 11.4665 66.0117 11.4665C65.2204 11.4665 64.5787 10.8248 64.5787 10.0335V4.30026ZM53.1116 4.30026C53.1116 3.50832 53.7533 2.86662 54.5452 2.86662C55.3365 2.86662 55.9782 3.50832 55.9782 4.30026V10.0335C55.9782 10.8248 55.3365 11.4665 54.5452 11.4665C53.7533 11.4665 53.1116 10.8248 53.1116 10.0335V4.30026ZM21.5787 4.30026C21.5787 3.50832 22.2204 2.86662 23.0117 2.86662C23.8037 2.86662 24.4454 3.50832 24.4454 4.30026V10.0335C24.4454 10.8248 23.8037 11.4665 23.0117 11.4665C22.2204 11.4665 21.5787 10.8248 21.5787 10.0335V4.30026ZM10.1116 4.30026C10.1116 3.50832 10.7533 2.86662 11.5452 2.86662C12.3365 2.86662 12.9782 3.50832 12.9782 4.30026V10.0335C12.9782 10.8248 12.3365 11.4665 11.5452 11.4665C10.7533 11.4665 10.1116 10.8248 10.1116 10.0335V4.30026ZM4.37834 8.59987H7.24496V10.0335C7.24496 12.408 9.17004 14.3331 11.5452 14.3331C13.9198 14.3331 15.8448 12.408 15.8448 10.0335V8.59987H18.7115V10.0335C18.7115 12.408 20.6372 14.3331 23.0117 14.3331C25.3869 14.3331 27.312 12.408 27.312 10.0335V8.59987H50.245V10.0335C50.245 12.408 52.17 14.3331 54.5452 14.3331C56.9198 14.3331 58.8455 12.408 58.8455 10.0335V8.59987H61.7121V10.0335C61.7121 12.408 63.6372 14.3331 66.0117 14.3331C68.3869 14.3331 70.312 12.408 70.312 10.0335V8.59987H73.1786V20.0664H4.37834V8.59987ZM4.37834 75.9665V22.9336H73.1786V63.067C66.8824 63.0303 61.7482 68.1048 61.7121 74.401C61.7088 74.9246 61.7416 75.4475 61.8105 75.9665H4.37834Z" fill="#111010"/>
</g>
<defs>
<clipPath id="clip0">
<rect width="86" height="86" fill="white"/>
</clipPath>
</defs>
</svg>
