<svg width="75" height="75" viewBox="0 0 75 75" fill="none" xmlns="http://www.w3.org/2000/svg">
<g clip-path="url(#clip0)">
<path d="M65.1656 53.583L33.9183 22.3357C33.4684 21.892 32.7997 21.7545 32.2153 21.9982C31.631 22.2389 31.2498 22.8107 31.2498 23.4418V66.7069C31.2498 67.3038 31.5903 67.8475 32.1279 68.11C32.6653 68.3725 33.3059 68.3068 33.7714 67.9382L41.7051 61.7355L48.6295 74.1969C48.9171 74.7094 49.4482 75 49.9982 75C50.2325 75 50.4732 74.9469 50.6982 74.8344L60.0724 70.1473C60.4536 69.9567 60.741 69.6192 60.8661 69.2129C60.991 68.8035 60.9442 68.3629 60.7412 67.9912L54.2167 56.2516H64.0596C64.6908 56.2516 65.2595 55.8703 65.5033 55.2861C65.7468 54.7016 65.6125 54.0299 65.1656 53.583ZM51.5637 53.13C51.0106 53.13 50.4981 53.4237 50.2169 53.9017C49.9356 54.3768 49.9263 54.9673 50.195 55.4516L57.2163 68.0849L50.6387 71.3753L43.5549 58.6201C43.333 58.22 42.9455 57.9357 42.4987 57.8451C42.3925 57.8232 42.2893 57.8139 42.1862 57.8139C41.8425 57.8139 41.4988 57.9294 41.2238 58.145L34.3743 63.5008V27.2134L60.2909 53.13H51.5637Z" fill="black"/>
<path d="M32.8122 0C31.9497 0 31.2498 0.69999 31.2498 1.56242V10.9366C31.2498 11.7991 31.9497 12.499 32.8122 12.499C33.6746 12.499 34.3746 11.7991 34.3746 10.9366V1.56242C34.3744 0.69999 33.6746 0 32.8122 0Z" fill="black"/>
<path d="M20.3131 21.873H10.9389C10.0765 21.873 9.37646 22.573 9.37646 23.4355C9.37646 24.2979 10.0765 24.9979 10.9389 24.9979H20.3131C21.1755 24.9979 21.8755 24.2979 21.8755 23.4355C21.8755 22.573 21.1755 21.873 20.3131 21.873Z" fill="black"/>
<path d="M54.6852 21.873H45.311C44.4485 21.873 43.7485 22.573 43.7485 23.4355C43.7485 24.2979 44.4485 24.9979 45.311 24.9979H54.6852C55.5476 24.9979 56.2476 24.2979 56.2476 23.4355C56.2476 22.573 55.5476 21.873 54.6852 21.873Z" fill="black"/>
<path d="M25.0784 13.4925L18.4477 6.86495C17.8384 6.25563 16.8478 6.25563 16.2385 6.86495C15.6292 7.47428 15.6292 8.46487 16.2385 9.07419L22.8691 15.7018C23.1754 16.0048 23.5753 16.158 23.9753 16.158C24.3753 16.158 24.7752 16.008 25.0784 15.7018C25.6877 15.0924 25.6877 14.1018 25.0784 13.4925Z" fill="black"/>
<path d="M25.0784 31.1723C24.469 30.563 23.4785 30.563 22.8691 31.1723L16.2385 37.7999C15.6292 38.4092 15.6292 39.3998 16.2385 40.0091C16.5448 40.3122 16.9446 40.4654 17.3446 40.4654C17.7447 40.4654 18.1445 40.3123 18.4477 40.0091L25.0784 33.3816C25.6877 32.7722 25.6877 31.7816 25.0784 31.1723Z" fill="black"/>
<path d="M49.3859 6.86494C48.7766 6.25254 47.786 6.25254 47.1736 6.86494L40.5429 13.4925C39.9336 14.1018 39.9336 15.0924 40.5429 15.7017C40.8492 16.0048 41.2491 16.158 41.6491 16.158C42.0491 16.158 42.449 16.008 42.7552 15.7017L49.3859 9.07418C49.9952 8.46485 49.9952 7.47749 49.3859 6.86494Z" fill="black"/>
</g>
<defs>
<clipPath id="clip0">
<rect width="75" height="75" fill="white"/>
</clipPath>
</defs>
</svg>
