<svg xmlns="http://www.w3.org/2000/svg" viewBox="0 0 512 512" style="height: 248px; width: 248px;"><defs><radialGradient id="gradient-1"><stop offset="0%" stop-color="#d0021b" stop-opacity="1"></stop><stop offset="100%" stop-color="#d0021b" stop-opacity="1"></stop></radialGradient></defs><path d="M0 0h512v512H0z" fill="#000" fill-opacity="0"></path><g class="" transform="translate(4,5)" style="touch-action: none;"><path d="M196 16a30 30 0 0 0-30 30v120H46a30 30 0 0 0-30 30v120a30 30 0 0 0 30 30h120v120a30 30 0 0 0 30 30h120a30 30 0 0 0 30-30V346h120a30 30 0 0 0 30-30V196a30 30 0 0 0-30-30H346V46a30 30 0 0 0-30-30H196z" fill="url(#gradient-1)" transform="translate(51.2, 51.2) scale(0.8, 0.8) rotate(765, 256, 256)"></path></g></svg>