<svg width="75" height="75" viewBox="0 0 75 75" fill="none" xmlns="http://www.w3.org/2000/svg">
<g clip-path="url(#clip0)">
<path d="M71.8056 9.79278L56.3126 4.2424C55.1006 3.80867 51.8127 2.8033 50.1499 7.15492L48.9998 10.3656C47.7501 13.7067 50.087 15.4588 50.7622 15.9325L43.0849 37.3673C42.3862 37.333 41.5314 37.4697 40.7618 38.0191C38.3682 39.7271 31.6998 43.558 21.4973 42.2522C18.5608 41.8769 15.7152 43.1678 14.0701 45.6225C12.4342 48.0635 12.3478 52.1039 14.8518 55.1978L15.4406 59.9643C15.6014 61.2666 16.4728 62.3395 17.7042 62.7932C19.3516 63.4009 20.5933 62.6679 21.249 62.0454L22.7591 60.6097C23.4159 60.8632 24.0665 61.0835 24.7126 61.2775L24.9723 63.3792C25.1331 64.6815 25.9829 65.8185 27.236 66.2082C28.9108 66.7294 30.125 66.0828 30.7808 65.4597L33.3231 63.0433C33.5686 63.0896 33.814 63.1371 34.0584 63.1863L34.5047 66.7941C34.6655 68.0964 35.5284 69.1922 36.7678 69.6231C38.4237 70.1981 39.6574 69.4978 40.3126 68.8746L42.8211 66.4902C43.0941 66.6608 43.3681 66.8393 43.6434 67.0275L44.0365 70.209C44.1973 71.5113 45.0556 72.6208 46.3001 73.0374C47.7787 73.5329 49.1892 72.9127 49.8449 72.2895L52.9984 69.2923C54.6148 68.6395 56.1884 67.4435 57.6361 65.7183C58.0263 65.2537 57.9657 64.5608 57.501 64.1705C57.0364 63.7803 56.3435 63.8409 55.9532 64.3056C51.7767 69.282 48.1037 67.6518 46.2858 66.2373C40.9809 62.1095 36.1292 61.2809 31.4371 60.4792C27.5375 59.8132 23.8548 59.1843 19.8837 56.7456C18.0584 55.6247 16.6445 54.1982 15.6826 52.5061C14.6532 50.6968 14.7327 48.5808 15.8955 46.8465C17.0736 45.0881 19.1135 44.1623 21.2187 44.4318C22.4163 44.5851 23.5682 44.6715 24.6754 44.7024C26.4378 45.7736 28.1807 47.1904 30.1857 48.8211C33.7734 51.7405 37.8178 55.0977 43.7035 57.767C48.7349 60.0489 52.4313 58.9412 53.7502 58.4422C56.7726 57.3001 58.9945 55.061 60.4553 53.1201C60.1892 55.6676 59.458 58.2671 58.3027 60.632C58.036 61.1768 58.2621 61.8348 58.8074 62.1009C59.3521 62.3669 60.0101 62.1415 60.2762 61.5962C62.5336 56.9768 63.3152 51.5122 62.3676 46.9798C62.1187 45.7902 61.5494 44.8558 60.8622 44.1542L68.6722 22.3481C68.7906 22.3573 72.2862 22.6794 73.568 19.1666L74.7175 15.9566C75.6136 13.4543 74.3072 10.6889 71.8056 9.79278ZM27.977 64.1391C27.5204 63.976 27.2125 63.5909 27.153 63.1097L27.0002 61.8743C28.2259 62.1512 29.435 62.3652 30.6314 62.5701L29.2673 63.8673C28.916 64.2009 28.4336 64.3027 27.977 64.1391ZM38.7991 67.2816C38.4478 67.6158 37.9654 67.7176 37.5088 67.554C37.0522 67.3903 36.7443 67.0058 36.6848 66.524L36.3375 63.7139C37.816 64.1093 39.2986 64.626 40.811 65.3699L38.7991 67.2816ZM49.2435 69.8291L48.3309 70.6965C47.9795 71.0307 47.4972 71.1325 47.0406 70.9689C46.5845 70.8052 46.2761 70.4202 46.2166 69.9389L46.0684 68.739C47.1035 69.3438 48.1695 69.706 49.2435 69.8291ZM18.7342 58.6179C19.3556 58.9995 19.9718 59.34 20.583 59.6461L19.735 60.4523C19.3836 60.7865 18.9013 60.8884 18.4446 60.7247C17.9886 60.5611 17.6802 60.176 17.6207 59.6947L17.3718 57.6806C17.8026 58.0107 18.2558 58.3243 18.7342 58.6179ZM51.6531 44.9479C50.5676 46.53 49.4478 47.4679 48.4138 47.6601C47.7684 47.7803 47.1241 47.6109 46.4443 47.1434C45.5729 46.5432 45.138 45.9035 45.1139 45.1876C45.0945 44.5811 45.3543 43.8813 45.8864 43.1071C46.5479 42.1458 46.7224 40.9631 46.3642 39.8621C46.1365 39.16 45.7113 38.5621 45.1477 38.1244L52.7718 16.8372L66.5453 21.7713L58.9876 42.8725C55.995 41.4214 53.1694 42.7363 51.6531 44.9479ZM52.9737 56.3863C50.4063 57.3567 47.5979 57.1507 44.6276 55.7734C39.0137 53.1705 35.0603 49.9541 31.5716 47.1165C30.4867 46.2336 29.4333 45.377 28.3901 44.5931C35.3676 43.9837 40.0522 41.2246 42.0378 39.8078C42.3222 39.6052 43.3516 39.2018 44.0062 39.9417C44.6613 40.681 44.2121 41.6646 44.0771 41.8614C43.2726 43.0304 42.8829 44.1737 42.9184 45.2597C42.9659 46.7017 43.7332 47.9445 45.1992 48.9533C46.3671 49.7573 47.5836 50.0491 48.815 49.8202C50.4578 49.5152 52.0227 48.2941 53.4653 46.1901C54.4243 44.7911 56.2004 44.1983 57.7757 44.7699C60.3495 45.7038 60.4021 48.4401 60.4593 48.9619C59.902 50.088 57.3889 54.7177 52.9737 56.3863ZM72.649 15.2156L71.4994 18.4256C71.0119 19.7875 69.507 20.4982 68.1457 20.0106L52.6533 14.4603C51.9936 14.2239 50.3004 13.1608 51.0683 11.106L52.2179 7.89592C52.4542 7.23674 53.1672 5.60253 55.5716 6.31149L71.0646 11.8613C72.4258 12.3488 73.1371 13.8537 72.649 15.2156Z" fill="black"/>
<path d="M26.8723 37.797C31.4494 35.669 34.9232 31.8855 36.6553 27.1443C38.3868 22.4024 38.1688 17.2703 36.0408 12.6927C35.5006 11.5311 34.8437 10.4239 34.0878 9.40191C33.7273 8.91439 33.039 8.81139 32.5515 9.17245C32.0639 9.53351 31.9609 10.2213 32.322 10.7088C32.8896 11.4767 33.3943 12.3001 33.8269 13.1613L29.3769 11.2759L27.7627 6.50083C28.3097 6.84301 28.8396 7.21494 29.3471 7.62063C29.8209 7.99943 30.5121 7.92276 30.8909 7.4484C31.2697 6.97461 31.1925 6.28339 30.7187 5.90459C28.0122 3.73994 24.7615 2.36036 21.3185 1.91404C17.7794 1.45513 14.1906 2.01188 10.9399 3.52308C6.36279 5.65111 2.88894 9.43452 1.15688 14.1758C-0.574614 18.9177 -0.356604 24.0498 1.77142 28.6274C4.9689 35.5065 11.8062 39.5582 18.9347 39.5577C21.5977 39.5577 24.3026 38.9918 26.8723 37.797ZM22.9481 36.866L17.7508 33.1289L18.8185 27.673L24.3232 25.1135L29.1898 27.8172L28.768 34.144C26.6343 35.8183 23.9609 36.6131 22.9481 36.866ZM17.0161 16.5951L22.5053 17.6691L23.1805 23.2218L18.109 25.5798L14.2993 21.4846L17.0161 16.5951ZM34.9519 16.0246C35.5115 17.9455 35.7169 19.9345 35.5653 21.9126L30.2443 25.8894L25.3903 23.1932L24.6573 17.1667L28.7211 13.3845L34.9519 16.0246ZM31.1078 32.0738L31.3945 27.7731L35.0131 25.0683C34.4031 27.8103 32.6213 30.4562 31.1078 32.0738ZM24.9692 5.09836L27.2259 11.7743L23.161 15.5583L17.2038 14.3932L14.8629 9.3567L19.5166 3.96882C20.023 3.98771 22.5356 4.08098 24.9692 5.09836ZM16.4691 4.13591L13.0582 8.08526L7.81219 8.16766C9.01153 7.10508 11.6917 4.57422 16.4691 4.13591ZM5.7225 10.3975L12.8716 10.2854L15.2119 15.3196L12.2628 20.6257L6.75247 21.2946L3.11267 15.2367C3.14758 15.1343 3.75984 12.1971 5.7225 10.3975ZM2.37396 18.2734L4.97978 22.6101L3.52237 27.1551C2.32246 24.3193 1.93565 21.266 2.37396 18.2734ZM4.96375 29.8548L7.00881 23.477L12.5283 22.8064L16.6625 27.2507L15.5959 32.7009L9.14256 34.2041C7.52609 33.0425 6.10073 31.5817 4.96375 29.8548ZM11.912 35.8149L16.3008 34.7923L19.8376 37.3352C19.5349 37.3518 14.9739 37.5023 11.912 35.8149Z" fill="black"/>
</g>
<defs>
<clipPath id="clip0">
<rect width="75" height="75" fill="white"/>
</clipPath>
</defs>
</svg>
