<svg width="87" height="82" viewBox="0 0 87 82" fill="none" xmlns="http://www.w3.org/2000/svg">
<path d="M74.612 68.564C79.6269 63.3922 83.259 56.9923 84.9453 49.8981C84.9616 49.8401 84.9749 49.7813 84.9856 49.7221C85.6486 46.8742 86.0012 43.9165 86.0012 40.8818C86.0012 37.8477 85.6488 34.8908 84.9862 32.0435C84.9753 31.9828 84.9616 31.9228 84.9448 31.8632C83.2584 24.7699 79.6267 18.3705 74.6124 13.1992C74.5071 13.0584 74.383 12.9313 74.2422 12.8213C68.8077 7.35541 61.8088 3.31064 53.9333 1.34073C53.8533 1.31561 53.772 1.29439 53.6893 1.27901C50.2703 0.444443 46.6885 0 42.9995 0C39.3153 0 35.7383 0.44347 32.3234 1.2759C32.2362 1.29186 32.1506 1.31425 32.0662 1.34073C24.191 3.31064 17.1923 7.35541 11.758 12.8215C11.6174 12.9315 11.4933 13.0584 11.3882 13.199C6.37434 18.3707 2.74263 24.7703 1.05618 31.864C1.03959 31.9224 1.02628 31.9816 1.01543 32.0414C0.352606 34.8893 0 37.847 0 40.8818C0 43.9171 0.352811 46.875 1.01584 49.7233C1.02649 49.7821 1.03959 49.8403 1.05597 49.8977C2.74222 56.9919 6.37414 63.3918 11.3886 68.5636C11.4935 68.7037 11.6172 68.8305 11.7574 68.9401C17.1995 74.4141 24.2104 78.4632 32.0996 80.43C32.151 80.4452 32.2028 80.4588 32.2555 80.4701C35.6908 81.3132 39.291 81.7621 42.9995 81.7621C46.709 81.7621 50.3102 81.3132 53.7464 80.4695C53.7986 80.4582 53.8502 80.4448 53.9014 80.4296C61.7904 78.4626 68.8011 74.4139 74.2432 68.9403C74.3837 68.8307 74.5071 68.7041 74.612 68.564ZM25.472 70.5753C26.4454 72.1337 27.3755 73.6407 28.2726 75.114C24.9642 73.8227 21.8822 72.1115 19.1021 70.048C21.2333 70.2512 23.3609 70.4276 25.472 70.5753ZM25.4875 66.6711C21.7119 66.4027 17.885 66.0416 14.0811 65.5957C9.86744 61.1437 6.77323 55.7172 5.2207 49.7198C6.52464 47.6837 7.96926 45.4574 9.69298 42.8279H24.6087C25.2216 43.8171 25.8348 44.8068 26.4526 45.8029C28.3209 48.8155 30.2455 51.9204 32.1434 55.0128C29.5794 59.3638 27.3908 63.1973 25.4875 66.6711ZM4.09531 40.8818C4.09531 39.8895 4.1379 38.9066 4.21898 37.9338C4.82325 38.863 5.4615 39.8404 6.14357 40.8812C5.46109 41.9225 4.82284 42.8999 4.21878 43.8287C4.1379 42.8561 4.09531 41.8736 4.09531 40.8818ZM25.472 11.1872C23.3607 11.335 21.2333 11.5111 19.1026 11.7144C21.8825 9.65101 24.9642 7.93982 28.2726 6.64854C27.3753 8.12184 26.4454 9.62882 25.472 11.1872ZM14.0815 16.1666C17.8842 15.721 21.7109 15.3599 25.4875 15.0912C27.3915 18.5662 29.5804 22.4001 32.1441 26.7503C30.2463 29.8423 28.3207 32.947 26.4526 35.9594C25.8354 36.9544 25.2203 37.9462 24.6083 38.9344H9.69318C7.97213 36.3092 6.5273 34.0829 5.2209 32.0429C6.77343 26.0454 9.86764 20.6188 14.0815 16.1666ZM35.6869 53.061C33.7824 49.9579 31.8531 46.8452 29.9803 43.8254C29.3689 42.8394 28.7619 41.8602 28.1554 40.8812C28.7619 39.902 29.3687 38.9227 29.9803 37.9369C31.8531 34.9171 33.7824 31.8046 35.6869 28.7013C40.5472 28.6353 45.454 28.6353 50.3143 28.7013C52.2197 31.8056 54.1496 34.9191 56.0228 37.9398C56.6336 38.9249 57.2397 39.9031 57.8456 40.8812C57.2397 41.8592 56.6336 42.8377 56.0228 43.8225C54.1494 46.8431 52.2195 49.9567 50.3143 53.061C45.4542 53.127 40.5476 53.127 35.6869 53.061ZM60.5294 11.1872C59.5562 9.62902 58.6264 8.12223 57.7293 6.64932C61.0371 7.9404 64.1184 9.6514 66.8978 11.7144C64.7677 11.5111 62.6406 11.3348 60.5294 11.1872ZM60.5141 15.0912C64.2906 15.3599 68.117 15.7208 71.9195 16.1664C76.1336 20.6186 79.228 26.0454 80.7807 32.0429C79.4741 34.0833 78.0295 36.3096 76.3087 38.9344H61.3933C60.7819 37.9472 60.1672 36.9563 59.5507 35.9623C57.6822 32.9493 55.7557 29.8433 53.8574 26.7503C56.4223 22.3985 58.6108 18.565 60.5141 15.0912ZM81.9061 40.8818C81.9061 41.8736 81.8635 42.8561 81.7826 43.8285C81.1784 42.8994 80.5401 41.9219 79.8581 40.8812C80.5401 39.8406 81.1784 38.8632 81.7826 37.934C81.8635 38.9066 81.9061 39.8895 81.9061 40.8818ZM59.5507 45.8C60.168 44.8046 60.7805 43.8161 61.3927 42.8279H76.3084C78.0299 45.4537 79.4745 47.68 80.7807 49.7196C79.228 55.7172 76.1338 61.1437 71.9197 65.5959C68.118 66.0416 64.2916 66.4025 60.5141 66.6713C58.6114 63.1987 56.4231 59.3652 53.8582 55.013C55.7568 51.9194 57.682 48.8136 59.5507 45.8ZM60.5294 70.5751C62.6408 70.4276 64.7681 70.2512 66.8983 70.0482C64.1186 72.1111 61.0373 73.8221 57.7293 75.1134C58.6268 73.6395 59.5566 72.1329 60.5294 70.5751ZM51.9483 4.88245C53.5211 7.52789 55.1756 10.2395 56.9755 13.1217C55.0759 16.5943 52.8841 20.4356 50.3082 24.8074C45.4518 24.742 40.5499 24.742 35.6935 24.8074C33.1181 20.437 30.9265 16.5955 29.0261 13.1217C30.826 10.2397 32.4805 7.52789 34.0535 4.88206C36.927 4.23671 39.9219 3.8935 42.9999 3.8935C46.0783 3.8935 49.0741 4.23691 51.9483 4.88245ZM34.0533 76.8803C32.4803 74.2346 30.8258 71.5228 29.0259 68.6407C30.9253 65.1686 33.1163 61.3285 35.6912 56.9584C40.5476 57.0238 45.454 57.0238 50.31 56.9584C52.886 61.33 55.0767 65.17 56.9753 68.6407C55.1767 71.5209 53.5222 74.2325 51.9481 76.8799C49.0738 77.5256 46.0781 77.8688 42.9995 77.8688C39.9217 77.8688 36.9268 77.5256 34.0533 76.8803Z" fill="#111010"/>
</svg>
